<?xml version="1.0" encoding="UTF-8"?>
<svg xmlns="http://www.w3.org/2000/svg" style="display: none;">
  <!-- Домик для собак -->
  <symbol id="i-doghouse" viewBox="0 0 24 24">
    <path d="M3 11l9-7 9 7v9H5v-9z" stroke="currentColor" stroke-width="2" stroke-linecap="round" stroke-linejoin="round"/>
    <path d="M9 20v-5h6v5" stroke="currentColor" stroke-width="2" stroke-linecap="round" stroke-linejoin="round"/>
  </symbol>
  
  <!-- Лапа с сердцем -->
  <symbol id="i-paw-heart" viewBox="0 0 24 24">
    <path d="M19.14 12.94a4 4 0 0 0-1.06-1.76l-8-7.5a4 4 0 0 0-5.12 0l-8 7.5A4 4 0 0 0 2 15.5V20a2 2 0 0 0 2 2h16a2 2 0 0 0 2-2v-4.5a4 4 0 0 0-2.86-3.56Z" stroke="currentColor" stroke-width="2" stroke-linecap="round" stroke-linejoin="round"/>
    <path d="M12 8l2 2 4-4" stroke="currentColor" stroke-width="2" stroke-linecap="round" stroke-linejoin="round"/>
  </symbol>
  
  <!-- Миска -->
  <symbol id="i-bowl" viewBox="0 0 24 24">
    <path d="M4 7h16a2 2 0 0 1 2 2v6a2 2 0 0 1-2 2H4a2 2 0 0 1-2-2V9a2 2 0 0 1 2-2z" stroke="currentColor" stroke-width="2" stroke-linecap="round" stroke-linejoin="round"/>
    <path d="M8 21v-4a2 2 0 0 1 2-2h4a2 2 0 0 1 2 2v4" stroke="currentColor" stroke-width="2" stroke-linecap="round" stroke-linejoin="round"/>
  </symbol>
  
  <!-- Медальон -->
  <symbol id="i-medallion" viewBox="0 0 24 24">
    <circle cx="12" cy="12" r="10" stroke="currentColor" stroke-width="2"/>
    <path d="M8 12h8" stroke="currentColor" stroke-width="2" stroke-linecap="round"/>
    <path d="M12 8v8" stroke="currentColor" stroke-width="2" stroke-linecap="round"/>
  </symbol>
  
  <!-- Дерево -->
  <symbol id="i-tree" viewBox="0 0 24 24">
    <path d="M12 2v20" stroke="currentColor" stroke-width="2" stroke-linecap="round"/>
    <path d="M17 5H9.5a3.5 3.5 0 0 0 0 7h5a3.5 3.5 0 0 1 0 7H6" stroke="currentColor" stroke-width="2" stroke-linecap="round" stroke-linejoin="round"/>
  </symbol>
  
  <!-- Ухо с пузырем -->
  <symbol id="i-ear-bubble" viewBox="0 0 24 24">
    <path d="M12 2a10 10 0 1 0 10 10A10 10 0 0 0 12 2z" stroke="currentColor" stroke-width="2"/>
    <path d="M8 14s1.5 2 4 2 4-2 4-2" stroke="currentColor" stroke-width="2" stroke-linecap="round" stroke-linejoin="round"/>
    <circle cx="9" cy="9" r="1" fill="currentColor"/>
    <circle cx="15" cy="9" r="1" fill="currentColor"/>
  </symbol>
  
  <!-- Лапа -->
  <symbol id="i-paw" viewBox="0 0 24 24">
    <path d="M11.5 4.5L9 7l2.5 2.5L14 7l-2.5-2.5z" stroke="currentColor" stroke-width="2" stroke-linecap="round" stroke-linejoin="round"/>
    <path d="M7 10l2.5 2.5L7 15l-2.5-2.5L7 10z" stroke="currentColor" stroke-width="2" stroke-linecap="round" stroke-linejoin="round"/>
    <path d="M16 10l2.5 2.5L16 15l-2.5-2.5L16 10z" stroke="currentColor" stroke-width="2" stroke-linecap="round" stroke-linejoin="round"/>
    <path d="M11.5 16L9 18.5l2.5 2.5L14 18.5l-2.5-2.5z" stroke="currentColor" stroke-width="2" stroke-linecap="round" stroke-linejoin="round"/>
  </symbol>
</svg>



